<svg width="173" height="50" viewBox="0 0 173 50" fill="none" xmlns="http://www.w3.org/2000/svg">
<path d="M9.6179 39H0.171875L12.4411 2.63636H24.142L36.4112 39H26.9652L18.4247 11.7983H18.1406L9.6179 39ZM8.35724 24.6889H28.1016V31.3651H8.35724V24.6889ZM40.3263 49.2273V11.7273H48.9201V16.397H49.1864C49.5415 15.5684 50.0446 14.7694 50.6957 14C51.3585 13.2306 52.199 12.6032 53.217 12.1179C54.2468 11.6207 55.4779 11.3722 56.9102 11.3722C58.8041 11.3722 60.5737 11.8693 62.2191 12.8636C63.8763 13.858 65.2139 15.3909 66.2319 17.4624C67.2499 19.5339 67.7589 22.1735 67.7589 25.3814C67.7589 28.4709 67.2676 31.0573 66.2852 33.1406C65.3145 35.224 64.0006 36.7865 62.3434 37.8281C60.698 38.8698 58.8692 39.3906 56.8569 39.3906C55.4838 39.3906 54.2942 39.1657 53.288 38.7159C52.2818 38.2661 51.4355 37.6742 50.7489 36.9403C50.0742 36.2064 49.5534 35.4193 49.1864 34.5788H49.0089V49.2273H40.3263ZM48.8313 25.3636C48.8313 26.8314 49.0266 28.1098 49.4173 29.1989C49.8197 30.2879 50.3938 31.1342 51.1396 31.7379C51.8971 32.3298 52.8027 32.6257 53.8562 32.6257C54.9215 32.6257 55.8271 32.3298 56.5728 31.7379C57.3185 31.1342 57.8808 30.2879 58.2596 29.1989C58.6502 28.1098 58.8455 26.8314 58.8455 25.3636C58.8455 23.8958 58.6502 22.6233 58.2596 21.5462C57.8808 20.469 57.3185 19.6345 56.5728 19.0426C55.8389 18.4508 54.9334 18.1548 53.8562 18.1548C52.7908 18.1548 51.8853 18.4448 51.1396 19.0249C50.3938 19.6049 49.8197 20.4335 49.4173 21.5107C49.0266 22.5878 48.8313 23.8722 48.8313 25.3636ZM72.3088 49.2273V11.7273H80.9025V16.397H81.1689C81.524 15.5684 82.027 14.7694 82.6781 14C83.341 13.2306 84.1814 12.6032 85.1994 12.1179C86.2292 11.6207 87.4603 11.3722 88.8926 11.3722C90.7865 11.3722 92.5562 11.8693 94.2015 12.8636C95.8587 13.858 97.1963 15.3909 98.2143 17.4624C99.2323 19.5339 99.7413 22.1735 99.7413 25.3814C99.7413 28.4709 99.2501 31.0573 98.2676 33.1406C97.2969 35.224 95.983 36.7865 94.3258 37.8281C92.6805 38.8698 90.8516 39.3906 88.8393 39.3906C87.4662 39.3906 86.2766 39.1657 85.2704 38.7159C84.2643 38.2661 83.4179 37.6742 82.7314 36.9403C82.0566 36.2064 81.5358 35.4193 81.1689 34.5788H80.9913V49.2273H72.3088ZM80.8137 25.3636C80.8137 26.8314 81.0091 28.1098 81.3997 29.1989C81.8021 30.2879 82.3762 31.1342 83.122 31.7379C83.8796 32.3298 84.7851 32.6257 85.8386 32.6257C86.9039 32.6257 87.8095 32.3298 88.5552 31.7379C89.301 31.1342 89.8632 30.2879 90.242 29.1989C90.6326 28.1098 90.8279 26.8314 90.8279 25.3636C90.8279 23.8958 90.6326 22.6233 90.242 21.5462C89.8632 20.469 89.301 19.6345 88.5552 19.0426C87.8213 18.4508 86.9158 18.1548 85.8386 18.1548C84.7733 18.1548 83.8677 18.4448 83.122 19.0249C82.3762 19.6049 81.8021 20.4335 81.3997 21.5107C81.0091 22.5878 80.8137 23.8722 80.8137 25.3636ZM111.979 39.4616C110.239 39.4616 108.695 39.1716 107.345 38.5916C106.008 37.9998 104.948 37.112 104.167 35.9283C103.397 34.7327 103.013 33.2353 103.013 31.4361C103.013 29.9209 103.279 28.6425 103.812 27.6009C104.344 26.5592 105.078 25.7128 106.013 25.0618C106.949 24.4107 108.026 23.9195 109.245 23.5881C110.464 23.2448 111.766 23.014 113.151 22.8956C114.702 22.7536 115.951 22.6056 116.898 22.4517C117.845 22.286 118.531 22.0552 118.957 21.7592C119.395 21.4515 119.614 21.0194 119.614 20.4631V20.3743C119.614 19.4628 119.301 18.7585 118.673 18.2614C118.046 17.7642 117.2 17.5156 116.134 17.5156C114.986 17.5156 114.063 17.7642 113.364 18.2614C112.666 18.7585 112.222 19.4451 112.033 20.321L104.025 20.0369C104.262 18.3797 104.871 16.9001 105.854 15.598C106.848 14.2841 108.209 13.2543 109.938 12.5085C111.678 11.7509 113.767 11.3722 116.205 11.3722C117.945 11.3722 119.549 11.5793 121.017 11.9936C122.485 12.3961 123.763 12.9879 124.852 13.7692C125.941 14.5386 126.782 15.4856 127.374 16.6101C127.977 17.7346 128.279 19.0189 128.279 20.4631V39H120.112V35.2003H119.898C119.413 36.1236 118.792 36.9048 118.034 37.544C117.288 38.1832 116.406 38.6626 115.388 38.9822C114.382 39.3018 113.246 39.4616 111.979 39.4616ZM114.661 33.7798C115.596 33.7798 116.436 33.5904 117.182 33.2116C117.939 32.8329 118.543 32.312 118.993 31.6491C119.443 30.9744 119.668 30.1932 119.668 29.3054V26.7131C119.419 26.8433 119.117 26.9616 118.762 27.0682C118.419 27.1747 118.04 27.2753 117.626 27.37C117.211 27.4647 116.785 27.5476 116.347 27.6186C115.909 27.6896 115.489 27.7547 115.087 27.8139C114.27 27.9441 113.571 28.1454 112.991 28.4176C112.423 28.6899 111.985 29.045 111.678 29.483C111.382 29.9091 111.234 30.4181 111.234 31.0099C111.234 31.9096 111.553 32.5961 112.192 33.0696C112.844 33.5431 113.666 33.7798 114.661 33.7798ZM133.588 39V11.7273H142.271V39H133.588ZM137.938 8.54901C136.719 8.54901 135.671 8.14654 134.795 7.34162C133.92 6.52486 133.482 5.54238 133.482 4.39418C133.482 3.25781 133.92 2.28717 134.795 1.48224C135.671 0.665481 136.719 0.2571 137.938 0.2571C139.169 0.2571 140.217 0.665481 141.081 1.48224C141.957 2.28717 142.395 3.25781 142.395 4.39418C142.395 5.54238 141.957 6.52486 141.081 7.34162C140.217 8.14654 139.169 8.54901 137.938 8.54901ZM171.607 20.0547L163.635 20.2678C163.552 19.6996 163.327 19.1965 162.96 18.7585C162.593 18.3087 162.114 17.9595 161.522 17.7109C160.942 17.4505 160.267 17.3203 159.498 17.3203C158.492 17.3203 157.634 17.5215 156.923 17.924C156.225 18.3265 155.882 18.871 155.894 19.5575C155.882 20.0902 156.095 20.5518 156.533 20.9425C156.983 21.3331 157.782 21.6468 158.93 21.8835L164.186 22.8778C166.908 23.3987 168.932 24.2628 170.258 25.4702C171.596 26.6776 172.27 28.2756 172.282 30.2642C172.27 32.1345 171.714 33.7621 170.613 35.147C169.524 36.532 168.033 37.6091 166.139 38.3786C164.245 39.1361 162.079 39.5149 159.64 39.5149C155.746 39.5149 152.674 38.7159 150.425 37.1179C148.188 35.508 146.909 33.3537 146.59 30.6548L155.166 30.4418C155.355 31.4361 155.846 32.1937 156.639 32.7145C157.432 33.2353 158.445 33.4957 159.676 33.4957C160.788 33.4957 161.694 33.2886 162.392 32.8743C163.091 32.46 163.446 31.9096 163.458 31.223C163.446 30.6075 163.173 30.1162 162.641 29.7493C162.108 29.3705 161.274 29.0746 160.137 28.8615L155.379 27.956C152.644 27.4588 150.608 26.5414 149.271 25.2038C147.933 23.8544 147.27 22.138 147.282 20.0547C147.27 18.2318 147.756 16.6752 148.738 15.3849C149.721 14.0829 151.117 13.0885 152.928 12.402C154.74 11.7154 156.876 11.3722 159.338 11.3722C163.031 11.3722 165.943 12.1475 168.074 13.6982C170.205 15.237 171.383 17.3558 171.607 20.0547Z" fill="white"/>
</svg>
