<svg width="50" height="50" viewBox="0 0 50 50" fill="none" xmlns="http://www.w3.org/2000/svg">
<path d="M41.6663 16.6667H35.8122C34.8725 15.037 33.5762 13.641 32.0205 12.5833L35.4163 9.1875L32.4788 6.25L27.958 10.7708C26.9997 10.5417 26.0205 10.4167 24.9997 10.4167C23.9788 10.4167 22.9997 10.5417 22.0622 10.7708L17.5205 6.25L14.583 9.1875L17.958 12.5833C16.4163 13.6458 15.1247 15.0417 14.1872 16.6667H8.33301V20.8333H12.6872C12.583 21.5208 12.4997 22.2083 12.4997 22.9167V25H8.33301V29.1667H12.4997V31.25C12.4997 31.9583 12.583 32.6458 12.6872 33.3333H8.33301V37.5H14.1872C16.3538 41.2292 20.3747 43.75 24.9997 43.75C29.6247 43.75 33.6455 41.2292 35.8122 37.5H41.6663V33.3333H37.3122C37.4163 32.6458 37.4997 31.9583 37.4997 31.25V29.1667H41.6663V25H37.4997V22.9167C37.4997 22.2083 37.4163 21.5208 37.3122 20.8333H41.6663V16.6667ZM33.333 25V31.25C33.333 31.7083 33.2705 32.2292 33.1872 32.7083L32.9788 34.0625L32.208 35.4167C30.708 38 27.958 39.5833 24.9997 39.5833C22.0413 39.5833 19.2913 37.9792 17.7913 35.4167L17.0205 34.0833L16.8122 32.7292C16.7224 32.241 16.6736 31.7463 16.6663 31.25V22.9167C16.6663 22.4375 16.7288 21.9167 16.8122 21.4583L17.0205 20.1042L17.7913 18.75C18.4163 17.6667 19.2913 16.7292 20.3122 16.0208L21.4997 15.2083L23.0413 14.8333C24.3327 14.5006 25.6874 14.5006 26.9788 14.8333L28.3955 15.1667L29.6663 16.0417C30.708 16.75 31.5622 17.6667 32.1872 18.7708L32.9788 20.125L33.1872 21.4792C33.2705 21.9375 33.333 22.4583 33.333 22.9167V25ZM20.833 29.1667H29.1663V33.3333H20.833V29.1667ZM20.833 20.8333H29.1663V25H20.833V20.8333Z" fill="#3485FF"/>
</svg>
