<svg width="50" height="50" viewBox="0 0 50 50" fill="none" xmlns="http://www.w3.org/2000/svg">
<path d="M13.4961 18.379L5.56641 25.0001L13.4961 31.6211C13.6551 31.7498 13.787 31.9087 13.884 32.0888C13.981 32.2688 14.0413 32.4664 14.0613 32.6699C14.0813 32.8735 14.0606 33.079 14.0004 33.2745C13.9403 33.47 13.8419 33.6515 13.7109 33.8086C13.5627 33.9857 13.3774 34.1282 13.1682 34.226C12.959 34.3239 12.731 34.3748 12.5 34.3751C12.1339 34.3767 11.7797 34.2448 11.5039 34.004L2.12891 26.1915C1.95302 26.0467 1.81136 25.8648 1.7141 25.6588C1.61685 25.4528 1.56641 25.2278 1.56641 25.0001C1.56641 24.7723 1.61685 24.5473 1.7141 24.3413C1.81136 24.1353 1.95302 23.9534 2.12891 23.8086L11.5039 15.9961C11.6559 15.8374 11.8397 15.7126 12.0432 15.6297C12.2467 15.5469 12.4654 15.5079 12.6851 15.5153C12.9047 15.5227 13.1203 15.5764 13.3177 15.6728C13.5152 15.7691 13.6901 15.9061 13.8311 16.0747C13.972 16.2433 14.0758 16.4397 14.1357 16.6511C14.1956 16.8626 14.2102 17.0842 14.1786 17.3017C14.147 17.5191 14.0699 17.7275 13.9523 17.9131C13.8347 18.0988 13.6792 18.2575 13.4961 18.379ZM47.8711 23.8086L38.4961 15.9961C38.1757 15.7836 37.7881 15.6966 37.4076 15.7519C37.027 15.8073 36.6803 16.001 36.4336 16.296C36.187 16.591 36.0578 16.9666 36.0707 17.3509C36.0837 17.7352 36.2379 18.1013 36.5039 18.379L44.4336 25.0001L36.5039 31.6211C36.2609 31.8273 36.0868 32.1028 36.0048 32.4108C35.9228 32.7188 35.937 33.0444 36.0454 33.3441C36.1538 33.6438 36.3512 33.9031 36.6112 34.0874C36.8712 34.2717 37.1813 34.372 37.5 34.3751C37.8661 34.3767 38.2203 34.2448 38.4961 34.004L47.8711 26.1915C48.047 26.0467 48.1887 25.8648 48.2859 25.6588C48.3832 25.4528 48.4336 25.2278 48.4336 25.0001C48.4336 24.7723 48.3832 24.5473 48.2859 24.3413C48.1887 24.1353 48.047 23.9534 47.8711 23.8086ZM31.7774 6.34771C31.5851 6.27654 31.3806 6.24438 31.1759 6.25311C30.9711 6.26184 30.7701 6.31129 30.5846 6.39857C30.3991 6.48585 30.2329 6.60921 30.0957 6.76144C29.9584 6.91367 29.8528 7.09173 29.7852 7.28521L17.2852 41.6602C17.214 41.8524 17.1818 42.0569 17.1906 42.2617C17.1993 42.4665 17.2487 42.6675 17.336 42.853C17.4233 43.0384 17.5467 43.2046 17.6989 43.3419C17.8511 43.4792 18.0292 43.5847 18.2227 43.6524C18.3921 43.713 18.5701 43.746 18.75 43.7501C19.0716 43.7517 19.3857 43.6528 19.6483 43.4672C19.9109 43.2816 20.109 43.0186 20.2149 42.7149L32.7149 8.3399C32.786 8.14767 32.8182 7.9432 32.8095 7.7384C32.8007 7.53361 32.7513 7.33262 32.664 7.14715C32.5767 6.96168 32.4534 6.79547 32.3011 6.6582C32.1489 6.52094 31.9708 6.41539 31.7774 6.34771Z" fill="#3485FF"/>
</svg>
