<svg width="50" height="50" viewBox="0 0 50 50" fill="none" xmlns="http://www.w3.org/2000/svg">
<g clip-path="url(#clip0_644_620)">
<path d="M40.2531 2C36.6806 2 33.6271 4.123 32.2646 7.1785H14.0706C13.8168 7.17852 13.566 7.23376 13.3356 7.34039C13.1053 7.44702 12.9009 7.60248 12.7366 7.796L0.419099 22.3035C-0.545901 23.441 0.262599 25.187 1.7541 25.1865L48.2541 25.1545C49.7446 25.153 50.5516 23.408 49.5871 22.2715L45.6521 17.6355C46.6981 16.8187 47.5437 15.7739 48.1245 14.5806C48.7052 13.3873 49.0057 12.0771 49.0031 10.75C49.0031 5.9025 45.1006 2 40.2531 2ZM38.5031 4.5H42.0031V9H46.5031V12.5H42.0031V17H38.5031V12.5H34.0031V9H38.5031V4.5ZM14.8801 10.6785H31.5071C31.5071 10.7025 31.5031 10.726 31.5031 10.75C31.5031 15.5975 35.4056 19.5 40.2531 19.5C40.9991 19.5 41.7181 19.3975 42.4081 19.2235L44.4736 21.657L5.5371 21.6835L14.8801 10.6785ZM44.9581 27.6565L40.3691 27.66L44.4746 32.495L5.5371 32.5215L9.6471 27.6805L5.0531 27.6845L0.419099 33.1415C-0.545901 34.279 0.262599 36.025 1.7541 36.0245L48.2541 35.992C49.7446 35.991 50.5516 34.246 49.5871 33.1095L44.9581 27.656V27.6565ZM44.9581 38.453L40.3691 38.457L44.4746 43.292L5.5371 43.3185L9.6471 38.4775L5.0531 38.4815L0.419099 43.9385C-0.545901 45.0755 0.262599 46.822 1.7541 46.8215L48.2541 46.789C49.7446 46.788 50.5516 45.0425 49.5871 43.906L44.9581 38.453Z" fill="#3485FF"/>
</g>
<defs>
<clipPath id="clip0_644_620">
<rect width="50" height="50" fill="white"/>
</clipPath>
</defs>
</svg>
