<svg width="50" height="50" viewBox="0 0 50 50" fill="none" xmlns="http://www.w3.org/2000/svg">
<g clip-path="url(#clip0_644_602)">
<path d="M42.6954 24.1992L37.5001 13.6914V6.25C37.5001 5.4212 37.1709 4.62634 36.5848 4.04029C35.9988 3.45424 35.2039 3.125 34.3751 3.125H15.6251C14.7963 3.125 14.0015 3.45424 13.4154 4.04029C12.8294 4.62634 12.5001 5.4212 12.5001 6.25V13.6914L7.30482 24.1992C7.05317 24.7149 6.94745 25.2897 6.99909 25.8612C7.05073 26.4327 7.25777 26.9792 7.59778 27.4414L23.7501 49.3555C23.8932 49.5531 24.081 49.7141 24.2983 49.825C24.5156 49.936 24.7561 49.9939 25.0001 49.9939C25.2441 49.9939 25.4846 49.936 25.7019 49.825C25.9192 49.7141 26.1071 49.5531 26.2501 49.3555L42.4025 27.4414C42.7425 26.9792 42.9495 26.4327 43.0012 25.8612C43.0528 25.2897 42.9471 24.7149 42.6954 24.1992ZM34.3751 6.25V12.5H15.6251V6.25H34.3751ZM25.0001 28.125C24.5366 28.125 24.0834 27.9875 23.698 27.73C23.3126 27.4725 23.0122 27.1064 22.8348 26.6782C22.6574 26.2499 22.611 25.7786 22.7014 25.324C22.7918 24.8694 23.0151 24.4517 23.3428 24.124C23.6706 23.7962 24.0882 23.573 24.5429 23.4825C24.9975 23.3921 25.4688 23.4385 25.897 23.6159C26.3253 23.7933 26.6913 24.0937 26.9489 24.4791C27.2064 24.8646 27.3439 25.3177 27.3439 25.7812C27.3439 26.4028 27.0969 26.999 26.6574 27.4385C26.2179 27.8781 25.6217 28.125 25.0001 28.125ZM26.5626 43.6719V31.0156C27.8215 30.6403 28.9032 29.8244 29.6099 28.7171C30.3167 27.6098 30.6012 26.2852 30.4116 24.9853C30.2219 23.6855 29.5708 22.4973 28.5771 21.6381C27.5835 20.7789 26.3137 20.3061 25.0001 20.3061C23.6865 20.3061 22.4168 20.7789 21.4231 21.6381C20.4295 22.4973 19.7783 23.6855 19.5887 24.9853C19.399 26.2852 19.6836 27.6098 20.3903 28.7171C21.0971 29.8244 22.1788 30.6403 23.4376 31.0156V43.6719L10.1173 25.5859L15.0392 15.625H34.9611L39.8829 25.5859L26.5626 43.6719Z" fill="white"/>
</g>
<defs>
<clipPath id="clip0_644_602">
<rect width="50" height="50" fill="white"/>
</clipPath>
</defs>
</svg>
