<svg width="50" height="50" viewBox="0 0 50 50" fill="none" xmlns="http://www.w3.org/2000/svg">
<path d="M43.9583 26.0416L46.875 28.9791L33.2708 42.7083L26.0417 35.4166L28.9583 32.4791L33.2708 36.8125L43.9583 26.0416ZM22.9167 8.33331C25.1268 8.33331 27.2464 9.21129 28.8092 10.7741C30.372 12.3369 31.25 14.4565 31.25 16.6666C31.25 18.8768 30.372 20.9964 28.8092 22.5592C27.2464 24.122 25.1268 25 22.9167 25C20.7065 25 18.5869 24.122 17.0241 22.5592C15.4613 20.9964 14.5833 18.8768 14.5833 16.6666C14.5833 14.4565 15.4613 12.3369 17.0241 10.7741C18.5869 9.21129 20.7065 8.33331 22.9167 8.33331ZM22.9167 12.5C21.8116 12.5 20.7518 12.939 19.9704 13.7204C19.189 14.5018 18.75 15.5616 18.75 16.6666C18.75 17.7717 19.189 18.8315 19.9704 19.6129C20.7518 20.3943 21.8116 20.8333 22.9167 20.8333C24.0217 20.8333 25.0815 20.3943 25.8629 19.6129C26.6443 18.8315 27.0833 17.7717 27.0833 16.6666C27.0833 15.5616 26.6443 14.5018 25.8629 13.7204C25.0815 12.939 24.0217 12.5 22.9167 12.5ZM22.9167 27.0833C24.3333 27.0833 26.0417 27.2708 27.9375 27.625L24.4583 31.1041L22.9167 31.0416C16.7292 31.0416 10.2083 34.0833 10.2083 35.4166V37.7083H23.125L27.0833 41.6666H6.25V35.4166C6.25 29.875 17.3542 27.0833 22.9167 27.0833Z" fill="#3485FF"/>
</svg>
